<svg preserveAspectRatio="none" overflow="visible" style="display: block;" width="96" height="96" viewBox="0 0 96 96" fill="none" xmlns="http://www.w3.org/2000/svg">
<g id="STATUS / UNREAD MESSAGES">
<path id="Vector" d="M66 27H20C17.7909 27 16 28.7909 16 31V66C16 68.2091 17.7909 70 20 70H66C68.2091 70 70 68.2091 70 66V31C70 28.7909 68.2091 27 66 27Z" fill="#121820" stroke="#9EE8EA" stroke-width="3"/>
<path id="Vector_2" d="M18 31L43 51L68 31M18 67L36 50M70 67L52 50" stroke="#F0D765" stroke-width="3" stroke-linejoin="round"/>
<path id="Vector_3" d="M73 33C78.5228 33 83 28.5228 83 23C83 17.4772 78.5228 13 73 13C67.4772 13 63 17.4772 63 23C63 28.5228 67.4772 33 73 33Z" fill="#DB4B91" stroke="#F0D765" stroke-width="3"/>
<g id="Vector_4">
<path d="M73 18V28ZM68 23H78Z" fill="black"/>
<path d="M73 18V28M68 23H78" stroke="#121820" stroke-width="3" stroke-linecap="round"/>
</g>
</g>
</svg>
